<?xml version="1.0" encoding="UTF-8"?>
<svg width="136px" height="40px" viewBox="0 0 136 40" version="1.1" xmlns="http://www.w3.org/2000/svg" xmlns:xlink="http://www.w3.org/1999/xlink">
    <!-- Generator: Sketch 63.1 (92452) - https://sketch.com -->
    <title>Artboard</title>
    <desc>Created with Sketch.</desc>
    <defs>
        <linearGradient x1="61.0453132%" y1="4.94615078%" x2="26.512955%" y2="71.8787395%" id="linearGradient-1">
            <stop stop-color="#00A0FF" offset="0%"></stop>
            <stop stop-color="#00A1FF" offset="1%"></stop>
            <stop stop-color="#00BEFF" offset="26%"></stop>
            <stop stop-color="#00D2FF" offset="51%"></stop>
            <stop stop-color="#00DFFF" offset="76%"></stop>
            <stop stop-color="#00E3FF" offset="100%"></stop>
        </linearGradient>
        <linearGradient x1="107.684729%" y1="50%" x2="-130.640394%" y2="50%" id="linearGradient-2">
            <stop stop-color="#FFE000" offset="0%"></stop>
            <stop stop-color="#FFBD00" offset="41%"></stop>
            <stop stop-color="#FFA500" offset="78%"></stop>
            <stop stop-color="#FF9C00" offset="100%"></stop>
        </linearGradient>
        <linearGradient x1="86.2709832%" y1="30.8725537%" x2="-50.1798561%" y2="136.108936%" id="linearGradient-3">
            <stop stop-color="#FF3A44" offset="0%"></stop>
            <stop stop-color="#C31162" offset="100%"></stop>
        </linearGradient>
        <linearGradient x1="-18.82494%" y1="-11.9103989%" x2="42.0863309%" y2="35.0790955%" id="linearGradient-4">
            <stop stop-color="#32A071" offset="0%"></stop>
            <stop stop-color="#2DA771" offset="7%"></stop>
            <stop stop-color="#15CF74" offset="48%"></stop>
            <stop stop-color="#06E775" offset="80%"></stop>
            <stop stop-color="#00F076" offset="100%"></stop>
        </linearGradient>
    </defs>
    <g id="Artboard" stroke="none" stroke-width="1" fill="none" fill-rule="evenodd">
        <g id="google-play-badge" transform="translate(9.000000, 6.000000)" fill-rule="nonzero">
            <path d="M38.42,4.24 C38.4531747,4.98104488 38.182257,5.703492 37.67,6.24 C37.0954216,6.83320716 36.2951824,7.15330286 35.47,7.12 C34.6405789,7.13848457 33.840533,6.81267403 33.26,6.22 C32.0480699,4.98032459 32.0480699,2.99967541 33.26,1.76 C34.1709107,0.869914814 35.5271184,0.61365464 36.7,1.11 C37.0606018,1.25823045 37.3822404,1.48748348 37.64,1.78 L37.11,2.31 C36.7073541,1.82495058 36.0995877,1.55812631 35.47,1.59 C34.3916641,1.59745842 33.4507006,2.32321534 33.1695842,3.36429056 C32.8884679,4.40536578 33.3362296,5.50611322 34.2642473,6.05533728 C35.192265,6.60456135 36.3726551,6.46739478 37.15,5.72 C37.4554502,5.3851023 37.6325669,4.95293751 37.65,4.5 L35.47,4.5 L35.47,3.78 L38.38,3.78 C38.4027696,3.93236612 38.4161282,4.08599059 38.42,4.24 L38.42,4.24 Z" id="Path" stroke="#FFFFFF" stroke-width="0.2" fill="#FFFFFF"></path>
            <polygon id="Path" stroke="#FFFFFF" stroke-width="0.2" fill="#FFFFFF" points="43 1.74 40.3 1.74 40.3 3.64 42.76 3.64 42.76 4.36 40.3 4.36 40.3 6.26 43 6.26 43 7 39.52 7 39.52 1 43 1"></polygon>
            <polygon id="Path" stroke="#FFFFFF" stroke-width="0.2" fill="#FFFFFF" points="46.28 7 45.51 7 45.51 1.74 43.83 1.74 43.83 1 48 1 48 1.74 46.28 1.74"></polygon>
            <polygon id="Path" stroke="#FFFFFF" stroke-width="0.2" fill="#FFFFFF" points="50.94 7 50.94 1 51.71 1 51.71 7"></polygon>
            <polygon id="Path" stroke="#FFFFFF" stroke-width="0.2" fill="#FFFFFF" points="55.13 7 54.36 7 54.36 1.74 52.68 1.74 52.68 1 56.8 1 56.8 1.74 55.13 1.74"></polygon>
            <path d="M64.61,6.22 C64.026689,6.80378762 63.2352634,7.13179619 62.41,7.13179619 C61.5847366,7.13179619 60.793311,6.80378762 60.21,6.22 C59.0365537,4.97259735 59.0365537,3.02740265 60.21,1.78 C60.7814921,1.17897422 61.5809257,0.848299417 62.41,0.87 C63.2374575,0.856910555 64.0335694,1.18621139 64.61,1.78 C65.190918,2.37091188 65.5082932,3.17156292 65.49,4 C65.5165237,4.8298939 65.1979114,5.63366594 64.61,6.22 L64.61,6.22 Z M60.78,5.72 C61.2103002,6.15605785 61.7973788,6.40152246 62.41,6.40152246 C63.0226212,6.40152246 63.6096998,6.15605785 64.04,5.72 C64.9346528,4.74783992 64.9346528,3.25216008 64.04,2.28 C63.6096998,1.84394215 63.0226212,1.59847754 62.41,1.59847754 C61.7973788,1.59847754 61.2103002,1.84394215 60.78,2.28 C59.8853472,3.25216008 59.8853472,4.74783992 60.78,5.72 L60.78,5.72 Z" id="Shape" stroke="#FFFFFF" stroke-width="0.2" fill="#FFFFFF"></path>
            <polygon id="Path" stroke="#FFFFFF" stroke-width="0.2" fill="#FFFFFF" points="66.58 7 66.58 1 67.51 1 70.43 5.67 70.43 5.67 70.43 4.51 70.43 1 71.2 1 71.2 7 70.4 7 67.35 2.11 67.35 2.11 67.35 3.26 67.35 7"></polygon>
            <path d="M59.14,15.75 C56.7872765,15.7555293 54.8844985,17.6672686 54.8900115,20.0199921 C54.8955484,22.3727156 56.8072843,24.2754972 59.1600078,24.2699885 C61.5127313,24.2644558 63.4155163,22.3527235 63.41,20 C63.426473,18.8643738 62.9812316,17.7707097 62.1762551,16.9695037 C61.3712787,16.1682976 60.2755364,15.7281956 59.14,15.75 L59.14,15.75 Z M59.14,22.58 C58.0832273,22.6539053 57.088673,22.0743135 56.6320213,21.1184371 C56.1753697,20.1625607 56.3494358,19.0246828 57.0709659,18.249038 C57.7924959,17.4733932 58.9148379,17.2176324 59.9011878,17.6040831 C60.8875378,17.9905338 61.5374189,18.9406494 61.54,20 C61.5725428,20.6626719 61.3360327,21.3103928 60.8841403,21.7961771 C60.432248,22.2819613 59.8032921,22.5646164 59.14,22.58 L59.14,22.58 Z M49.82,15.75 C47.4672765,15.7555293 45.5644985,17.6672686 45.5700115,20.0199921 C45.5755484,22.3727156 47.4872843,24.2754972 49.8400078,24.2699885 C52.1927313,24.2644558 54.0955163,22.3527235 54.09,20 C54.106473,18.8643738 53.6612316,17.7707097 52.8562551,16.9695037 C52.0512787,16.1682976 50.9555364,15.7281956 49.82,15.75 L49.82,15.75 Z M49.82,22.58 C48.7632273,22.6539053 47.768673,22.0743135 47.3120213,21.1184371 C46.8553697,20.1625607 47.0294358,19.0246828 47.7509659,18.249038 C48.4724959,17.4733932 49.5948379,17.2176324 50.5811878,17.6040831 C51.5675378,17.9905338 52.2174189,18.9406494 52.22,20 C52.2525428,20.6626719 52.0160327,21.3103928 51.5641403,21.7961771 C51.112248,22.2819613 50.4832921,22.5646164 49.82,22.58 L49.82,22.58 Z M38.74,17.06 L38.74,18.86 L43.06,18.86 C42.9922634,19.7078038 42.6398446,20.5077945 42.06,21.13 C41.1836518,22.0228625 39.9699725,22.5025202 38.72,22.45 C36.0690332,22.45 33.92,20.3009668 33.92,17.65 C33.92,14.9990332 36.0690332,12.85 38.72,12.85 C39.9404476,12.8318498 41.1188954,13.2953247 42,14.14 L43.27,12.87 C42.0659807,11.6791542 40.4332385,11.0231739 38.74,11.05 C36.3189608,10.955779 34.0403936,12.1936718 32.801854,14.2760571 C31.5633145,16.3584423 31.5633145,18.9515577 32.801854,21.0339429 C34.0403936,23.1163282 36.3189608,24.354221 38.74,24.26 C40.4701987,24.3291046 42.1475475,23.655982 43.35,22.41 C44.4001185,21.2564101 44.9596631,19.7391832 44.91,18.18 C44.9135793,17.8047255 44.8834584,17.4298875 44.82,17.06 L38.74,17.06 Z M84.05,18.46 C83.5160796,16.8892101 82.0679278,15.811053 80.41,15.7499923 C79.3043635,15.7478383 78.2471451,16.2034076 77.4893794,17.0085336 C76.7316138,17.8136596 76.3408955,18.8965231 76.41,20 C76.3924407,21.8748194 77.611123,23.5374987 79.4042599,24.0851449 C81.1973968,24.632791 83.1370825,23.9347165 84.17,22.37 L82.72,21.37 C82.280167,22.103094 81.4848748,22.5483054 80.63,22.54 C79.742835,22.5766297 78.9244125,22.0641224 78.57,21.2499923 L84.26,18.9 L84.05,18.46 Z M78.25,19.88 C78.2090571,19.2525116 78.4223869,18.634951 78.8419025,18.1665232 C79.2614182,17.6980954 79.8518111,17.4182257 80.48,17.39 C81.1387659,17.3497893 81.7574492,17.7083892 82.05,18.3 L78.25,19.88 Z M73.63,24 L75.5,24 L75.5,11.5 L73.63,11.5 L73.63,24 Z M70.57,16.7 L70.5,16.7 C69.9347066,16.0562073 69.116706,15.6910285 68.26,15.7 C65.9901469,15.8100717 64.2063371,17.6824796 64.2063371,19.955 C64.2063371,22.2275204 65.9901469,24.0999283 68.26,24.21 C69.1183976,24.2272187 69.9397171,23.8605582 70.5,23.21 L70.57,23.21 L70.57,23.82 C70.57,25.45 69.7,26.32 68.3,26.32 C67.3435146,26.2989876 66.4943492,25.702597 66.15,24.81 L64.53,25.48 C65.1431493,27.0199895 66.6425851,28.0222649 68.3,28 C70.49,28 72.3,26.71 72.3,23.57 L72.3,16 L70.57,16 L70.57,16.7 Z M68.42,22.58 C67.0600866,22.4952122 66.0005459,21.367554 66.0005459,20.005 C66.0005459,18.642446 67.0600866,17.5147878 68.42,17.43 C69.0670204,17.4579218 69.6750106,17.747221 70.1047995,18.231676 C70.5345883,18.7161309 70.7493771,19.3542625 70.7,20 C70.7551348,20.6480494 70.5426575,21.2904311 70.1119703,21.7777877 C69.6812831,22.2651443 69.0699104,22.5550138 68.42,22.58 L68.42,22.58 Z M92.81,11.5 L88.33,11.5 L88.33,24 L90.2,24 L90.2,19.26 L92.81,19.26 C94.2626839,19.3643638 95.651974,18.648509 96.4101301,17.404973 C97.1682862,16.161437 97.1682862,14.598563 96.4101301,13.355027 C95.651974,12.111491 94.2626839,11.3956362 92.81,11.5 L92.81,11.5 Z M92.81,17.5 L90.2,17.5 L90.2,13.24 L92.85,13.24 C93.6145484,13.24 94.3210202,13.6478817 94.7032944,14.31 C95.0855686,14.9721183 95.0855686,15.7878817 94.7032944,16.45 C94.3210202,17.1121183 93.6145484,17.52 92.85,17.52 L92.81,17.5 Z M104.35,15.71 C102.958089,15.6241747 101.648702,16.3752042 101.02,17.62 L102.67,18.31 C103.010603,17.695923 103.680401,17.3394806 104.38,17.4 C104.859528,17.3439946 105.341454,17.4829701 105.717528,17.7857102 C106.093603,18.0884503 106.332299,18.5295749 106.38,19.01 L106.38,19.13 C105.778663,18.8139168 105.109348,18.6491623 104.43,18.65 C102.65,18.65 100.83,19.65 100.83,21.47 C100.865569,22.2515813 101.216509,22.9853449 101.802624,23.5036142 C102.38874,24.0218835 103.159942,24.280368 103.94,24.22 C104.895412,24.2728479 105.805111,23.8065317 106.32,23 L106.38,23 L106.38,24 L108.18,24 L108.18,19.19 C108.18,17 106.52,15.73 104.39,15.73 L104.35,15.71 Z M104.12,22.56 C103.51,22.56 102.66,22.25 102.66,21.5 C102.66,20.5 103.72,20.16 104.66,20.16 C105.254042,20.1453419 105.841131,20.2903874 106.36,20.58 C106.230157,21.7031043 105.29036,22.5574651 104.16,22.58 L104.12,22.56 Z M114.74,16 L112.6,21.42 L112.54,21.42 L110.32,16 L108.32,16 L111.65,23.58 L109.75,27.79 L111.7,27.79 L116.82,16 L114.74,16 Z M97.94,24 L99.8,24 L99.8,11.5 L97.94,11.5 L97.94,24 Z" id="Shape" fill="#FFFFFF"></path>
            <path d="M1.44,1.54 C1.11046935,1.92961949 0.942329082,2.43046284 0.97,2.94 L0.97,25.06 C0.93597397,25.5703792 1.1048935,26.0735438 1.44,26.46 L1.51,26.54 L13.9,14.15 L13.9,13.85 L1.51,1.47 L1.44,1.54 Z" id="Path" fill="url(#linearGradient-1)"></path>
            <path d="M18,18.28 L13.9,14.15 L13.9,13.85 L18,9.72 L18.09,9.78 L23,12.56 C24.4,13.35 24.4,14.65 23,15.45 L18.11,18.23 L18,18.28 Z" id="Path" fill="url(#linearGradient-2)"></path>
            <path d="M18.12,18.22 L13.9,14 L1.44,26.46 C2.02303258,26.9789708 2.89323997,27.0083981 3.51,26.53 L18.12,18.22" id="Path" fill="url(#linearGradient-3)"></path>
            <path d="M18.12,9.78 L3.51,1.48 C2.89696457,0.994721505 2.02389773,1.02002779 1.44,1.54 L13.9,14 L18.12,9.78 Z" id="Path" fill="url(#linearGradient-4)"></path>
            <path d="M18,18.13 L3.51,26.38 C2.91815421,26.8266792 2.10184579,26.8266792 1.51,26.38 L1.51,26.38 L1.44,26.45 L1.44,26.45 L1.51,26.53 L1.51,26.53 C2.10184579,26.9766792 2.91815421,26.9766792 3.51,26.53 L18.12,18.22 L18,18.13 Z" id="Path" fill="#000000" opacity="0.2"></path>
            <path d="M1.44,26.32 C1.11879407,25.9233599 0.961381924,25.4189256 1,24.91 L1,25.06 C0.96597397,25.5703792 1.1348935,26.0735438 1.47,26.46 L1.54,26.39 L1.44,26.32 Z" id="Path" fill="#000000" opacity="0.12"></path>
            <path d="M23,15.3 L18,18.13 L18.09,18.22 L23,15.44 C23.5903954,15.1903582 23.9970603,14.6379078 24.06,14 L24.06,14 C23.9332082,14.5771002 23.5397617,15.059629 23,15.3 Z" id="Path" fill="#000000" opacity="0.12"></path>
            <path d="M3.51,1.62 L23,12.7 C23.5397617,12.940371 23.9332082,13.4228998 24.06,14 L24.06,14 C23.9970603,13.3620922 23.5903954,12.8096418 23,12.56 L3.51,1.48 C2.12,0.68 0.97,1.34 0.97,2.94 L0.97,3.09 C1,1.49 2.12,0.83 3.51,1.62 Z" id="Path" fill="#FFFFFF" opacity="0.25"></path>
        </g>
    </g>
</svg>