<svg width="40" height="40" viewBox="0 0 40 40" fill="none" xmlns="http://www.w3.org/2000/svg">
<path d="M38.68 0.00381425C39.3945 -0.0563903 40.0565 0.60557 39.9962 1.32006C39.9084 2.33754 38.6412 25.4614 31.2417 32.8611C24.1494 39.9535 15.7926 38.2887 10.3359 34.3658C10.2606 34.3113 10.1869 34.2548 10.1146 34.1963L5.19553 39.1086C4.00695 40.2971 2.07994 40.2971 0.891435 39.1086C-0.297145 37.92 -0.297145 35.9929 0.891435 34.8044L5.80444 29.886C5.74575 29.8135 5.68895 29.7394 5.6341 29.6639C1.71134 24.2071 0.0464911 15.8501 7.13882 8.75771C14.5384 1.35791 37.6616 0.0907924 38.68 0.00381425Z" fill="#00AE46"/>
</svg>
