<svg width="41" height="38" viewBox="0 0 41 38" fill="none" xmlns="http://www.w3.org/2000/svg">
<path d="M20.1128 37.833C20.5418 37.833 21.0565 37.6658 21.657 37.3313C22.2574 36.9968 22.8824 36.6167 23.5319 36.191C26.8163 34.0016 29.7023 31.6815 32.1901 29.2307C34.6777 26.7798 36.6201 24.2499 38.0174 21.6409C39.4143 19.032 40.1128 16.4139 40.1128 13.7867C40.1128 11.8163 39.7912 10.0344 39.1479 8.44102C38.5044 6.84766 37.6312 5.48539 36.5284 4.35423C35.4253 3.22308 34.1631 2.35342 32.7415 1.74527C31.3199 1.13709 29.831 0.833008 28.2746 0.833008C26.3138 0.833008 24.6594 1.31042 23.3114 2.26524C21.9633 3.22004 20.8971 4.4333 20.1128 5.90503C19.3285 4.4333 18.2623 3.22004 16.9143 2.26524C15.5663 1.31042 13.9118 0.833008 11.951 0.833008C10.3824 0.833008 8.89038 1.13709 7.47495 1.74527C6.0595 2.35342 4.79724 3.22308 3.68818 4.35423C2.57909 5.48539 1.70592 6.84766 1.06865 8.44102C0.431413 10.0344 0.112793 11.8163 0.112793 13.7867C0.112793 16.4139 0.808261 19.032 2.1992 21.6409C3.59013 24.2499 5.53254 26.7798 8.02641 29.2307C10.5203 31.6815 13.4094 34.0016 16.6937 36.191C17.331 36.6167 17.9529 36.9968 18.5595 37.3313C19.1661 37.6658 19.6839 37.833 20.1128 37.833Z" fill="#FF637F"/>
</svg>
