<svg width="349" height="496" viewBox="0 0 349 496" fill="none" xmlns="http://www.w3.org/2000/svg">
<g filter="url(#filter0_d_1580_6994)">
<path d="M308.433 355.685C301.187 352.049 295.437 345.999 292.173 338.578C291.403 336.651 290.863 334.648 290.247 332.644C289.844 330.805 289.224 329.02 288.398 327.327C288.131 326.958 287.82 326.621 287.473 326.326C286.278 327.59 284.932 328.703 283.466 329.639C281.31 330.843 278.869 331.443 276.401 331.375C273.932 331.307 271.528 330.575 269.441 329.254C266.812 327.623 264.636 325.356 263.114 322.663C261.592 319.969 260.774 316.936 260.734 313.842C261.153 308.368 262.899 303.079 265.819 298.43C266.513 297.12 267.206 295.81 267.823 294.5C271.345 284.79 272.738 274.435 271.907 264.139V262.906L270.674 262.213C263.477 258.007 257.315 252.24 252.642 245.337L251.409 243.256C250.012 240.573 248.07 238.211 245.707 236.321C243.563 238.093 242.028 240.491 241.315 243.179C241.715 244.373 241.791 245.652 241.534 246.884C241.276 248.117 240.695 249.258 239.851 250.192C238.969 251.159 237.856 251.886 236.615 252.304C235.375 252.722 234.049 252.817 232.761 252.581C225.055 251.425 224.593 251.502 221.973 253.968C219.353 256.433 218.891 256.973 217.35 258.514C213.402 262.949 208.834 266.79 203.787 269.919C199.159 272.889 193.678 274.243 188.199 273.769C182.72 273.295 177.553 271.02 173.503 267.299C171.084 264.152 169.314 260.556 168.295 256.72C167.277 252.884 167.03 248.884 167.57 244.952C167.57 243.025 167.57 241.176 167.57 239.404C165.434 239.848 163.213 239.62 161.212 238.75C159.211 237.881 157.529 236.413 156.396 234.549L146.764 222.913C144.556 220.449 143.041 217.445 142.372 214.205C141.947 210.573 142.618 206.897 144.298 203.648V202.878C147.744 195.085 148.687 186.416 146.995 178.065C146.995 176.524 146.379 175.137 145.993 173.75C144.448 168.768 143.95 163.521 144.529 158.338C113.895 164.292 85.7271 179.234 63.6177 201.26C68.3512 202.953 72.6998 205.572 76.4095 208.965C76.6853 209.203 76.9429 209.46 77.18 209.736C81.2721 213.488 84.5782 218.015 86.9064 223.055C89.2346 228.095 90.5385 233.547 90.7423 239.095C90.9373 242.123 90.9373 245.16 90.7423 248.188C90.0232 251.982 90.0232 255.876 90.7423 259.67C92.57 263.674 95.1916 267.266 98.4482 270.227C99.3729 271.229 100.298 272.153 101.145 273.155C104.44 276.276 106.957 280.125 108.496 284.393C110.035 288.662 110.552 293.232 110.007 297.737C108.843 302.658 106.518 307.229 103.226 311.068C101.378 313.145 99.9871 315.586 99.1417 318.234C98.6023 322.396 103.611 327.404 108.081 331.874C120.949 344.897 120.41 354.991 117.636 361.387C116.864 363.098 115.494 364.468 113.783 365.24C111.054 366.497 108.079 367.129 105.075 367.09C99.749 366.793 94.5238 365.512 89.6635 363.314C86.2705 361.547 82.5405 360.523 78.7212 360.308C77.5653 360.308 76.4865 360.308 75.4077 360.308C71.4773 361.077 67.4146 360.812 63.6177 359.538C60.1883 358.025 57.2123 355.644 54.9827 352.631C52.7532 349.618 51.3471 346.076 50.903 342.354C50.903 341.275 50.903 340.273 50.2866 339.194C49.9481 336.506 49.1396 333.897 47.8978 331.489C44.5318 328.511 40.3386 326.629 35.8766 326.094H34.2584L18.8467 322.164C21.0661 358.418 35.8322 392.77 60.6118 419.326C85.3915 445.882 118.64 462.988 154.654 467.708C190.667 472.428 227.201 464.47 257.988 445.197C288.774 425.924 311.894 396.538 323.382 362.081C318.147 360.594 313.124 358.444 308.433 355.685ZM262.198 384.813C253.262 393.383 243.564 401.12 233.224 407.931C231.97 408.773 230.496 409.229 228.985 409.241C228.092 409.24 227.205 409.083 226.365 408.778C221.097 406.796 216.83 402.805 214.498 397.682L213.805 395.832C213.686 395.409 213.532 394.997 213.343 394.6C212.066 394.069 210.752 393.631 209.413 393.289H208.565C204.282 392.049 200.148 390.343 196.236 388.204C193.982 387.122 192.025 385.509 190.533 383.503C188.772 380.723 187.983 377.436 188.29 374.159C188.597 370.882 189.982 367.8 192.228 365.394C193.305 364.138 194.464 362.954 195.696 361.85C196.607 361.036 197.433 360.132 198.162 359.153C199.189 356.846 199.74 354.356 199.78 351.832C199.776 345.683 202.055 339.751 206.176 335.187C211.151 331.107 217.476 329.044 223.9 329.408C229.366 329.297 234.78 330.485 239.697 332.876C243.135 334.904 245.965 337.82 247.89 341.318C249.815 344.815 250.765 348.766 250.639 352.757C250.73 354.468 250.962 356.169 251.332 357.843C252.555 358.397 253.817 358.861 255.108 359.23C263.354 361.695 268.131 366.935 268.131 373.408C267.932 375.628 267.282 377.784 266.223 379.745C265.163 381.706 263.715 383.43 261.967 384.813H262.198Z" fill="white"/>
<path d="M103.227 351.293C100.38 350.637 97.5951 349.734 94.9045 348.596C89.7259 346.263 84.1618 344.905 78.491 344.588C76.7635 344.605 75.0388 344.733 73.3281 344.974C71.8209 345.199 70.2887 345.199 68.7816 344.974C67.7798 344.974 66.4698 342.585 65.6993 338.886C65.6993 338.039 65.6993 337.114 65.1598 336.189C64.5342 331.229 62.8241 326.467 60.151 322.242C54.8348 315.968 47.4069 311.857 39.2682 310.683L33.4117 309.219L18 305.443C19.3576 272.225 31.3516 240.322 52.214 214.437C57.4883 214.761 62.4924 216.882 66.3928 220.447L66.8551 220.909C71.9559 225.633 75.0226 232.154 75.4086 239.095C75.432 241.541 75.3033 243.986 75.0234 246.416C74.2529 252.262 74.6193 258.201 76.1022 263.908C78.487 270.037 82.1973 275.563 86.9674 280.09L89.4333 282.787C92.2074 286.024 95.4439 290.493 94.7503 294.346C93.8836 296.939 92.4935 299.326 90.6662 301.359C87.1718 305.438 84.7838 310.347 83.731 315.614C82.1127 327.327 90.7433 335.881 96.985 342.2C99.6801 344.76 101.807 347.858 103.227 351.293Z" fill="white"/>
<path d="M88.9723 42.1334C88.1768 44.0138 88.1601 46.133 88.9259 48.0257C89.6916 49.9184 91.1772 51.4298 93.0564 52.2281C113.721 60.3534 132.194 73.2059 146.997 89.7556C150.372 93.638 153.462 97.7585 156.244 102.085C147.276 109.627 136.051 113.965 124.342 114.414C116.03 114.268 107.962 111.579 101.225 106.708C85.1964 95.9973 75.2559 81.2021 63.6971 64.0951L62.4641 62.2457C57.2994 53.686 49.0099 47.4689 39.3466 44.9075C37.8197 44.6664 36.4006 43.9716 35.2738 42.9134C34.1469 41.8553 33.3644 40.4827 33.0278 38.974C32.6547 37.5392 32.7034 36.0272 33.1682 34.6194C33.6329 33.2116 34.4938 31.9677 35.6478 31.037C36.1872 31.037 104.23 -15.1982 151.698 29.4187C160.253 36.7549 166.295 46.5863 168.977 57.5325C171.658 68.4786 170.843 79.9896 166.647 90.4491C163.094 85.2528 159.153 80.3327 154.857 75.7309C139.255 59.3659 120.34 46.5192 99.3752 38.0493C98.428 37.6067 97.4007 37.3614 96.3557 37.3285C95.3107 37.2955 94.27 37.4755 93.2968 37.8576C92.3236 38.2397 91.4384 38.8158 90.6949 39.5508C89.9514 40.2859 89.3654 41.1646 88.9723 42.1334Z" fill="white"/>
<path d="M251.41 373.948C244.49 380.594 237.071 386.699 229.217 392.211C229.192 391.98 229.192 391.748 229.217 391.517L228.292 390.515C227.778 388.997 227.079 387.548 226.212 386.2C223.15 382.135 218.662 379.381 213.651 378.494H212.881C209.889 377.647 206.996 376.485 204.25 375.027L206.331 372.946C208.173 371.305 209.803 369.441 211.185 367.398C213.552 363.141 214.897 358.393 215.115 353.527C215.034 350.996 215.647 348.491 216.888 346.284C219.32 345.232 221.943 344.689 224.593 344.689C227.244 344.689 229.866 345.232 232.299 346.284C234.457 347.517 234.842 348.519 235.382 353.99C235.522 357.041 236.014 360.066 236.846 363.006C238.077 365.823 239.989 368.291 242.41 370.188C244.831 372.084 247.685 373.35 250.716 373.871L251.41 373.948Z" fill="white"/>
<path d="M330.781 311.993C330.828 323.763 329.535 335.5 326.928 346.977C321.798 345.704 316.942 343.511 312.595 340.504C309.843 338.581 307.703 335.906 306.43 332.798C305.997 331.38 305.637 329.939 305.351 328.483C304.6 325.398 303.461 322.42 301.961 319.621C300.096 315.879 296.867 312.994 292.94 311.56C289.012 310.127 284.684 310.254 280.847 311.916C279.337 312.856 277.941 313.968 276.686 315.229C276.386 314.823 276.2 314.344 276.146 313.842C276.634 310.789 277.763 307.874 279.46 305.289L281.849 300.588C286.362 288.836 288.23 276.233 287.32 263.677C287.499 260.553 286.834 257.439 285.393 254.661C283.777 252.192 281.581 250.155 278.997 248.728H278.304C273.319 245.679 269.038 241.608 265.743 236.783L264.51 235.011C262.879 231.406 260.414 228.241 257.319 225.776C254.225 223.311 250.588 221.616 246.71 220.832C243.79 220.805 240.908 221.492 238.315 222.836C235.723 224.179 233.499 226.137 231.837 228.538C230.008 230.894 228.504 233.486 227.368 236.244C224.519 236.203 221.691 236.727 219.046 237.785C216.401 238.843 213.991 240.415 211.956 242.409C210.184 244.027 208.489 245.799 206.793 247.495C203.838 250.863 200.443 253.817 196.699 256.279C193 258.36 187.683 259.053 185.371 256.279C183.059 253.505 183.445 250.5 183.522 244.643C183.646 241.013 183.466 237.379 182.982 233.778C182.67 231.41 181.811 229.147 180.473 227.168C179.136 225.189 177.357 223.547 175.276 222.374C173.985 221.822 172.596 221.538 171.192 221.538C169.789 221.538 168.399 221.822 167.108 222.374L159.402 213.126C159.402 213.126 158.401 211.894 158.247 211.894C158.453 211.097 158.737 210.323 159.094 209.582V208.811C163.731 198.143 164.995 186.312 162.716 174.905C162.716 173.673 162.254 172.517 161.945 171.361C161.637 170.205 161.945 170.359 161.945 169.897C160.917 167.691 160.443 165.268 160.563 162.837C160.684 160.406 161.397 158.042 162.639 155.949C166.107 155.949 169.574 155.487 173.119 155.487C172.928 146.366 171.476 137.316 168.804 128.593C168.644 127.803 168.411 127.029 168.11 126.282C165.317 117.776 161.431 109.668 156.551 102.162C159.622 99.7613 162.437 97.0499 164.951 94.071C165.283 93.6789 165.592 93.2672 165.875 92.8381L167.031 90.5263C171.59 97.1673 175.488 104.239 178.667 111.64C185.109 106.302 192.334 101.987 200.089 98.8486C201.553 91.0946 204.619 83.7313 209.09 77.2296C213.562 70.7279 219.341 65.2308 226.058 61.0899C243.165 51.7658 265.666 54.0005 292.945 67.5628C293.942 68.0691 294.817 68.7863 295.509 69.6645C296.201 70.5428 296.693 71.561 296.952 72.6487C297.225 73.7231 297.263 74.8438 297.064 75.9343C296.864 77.0248 296.432 78.0594 295.796 78.9675C294.64 80.5858 266.976 118.961 234.997 122.197C229.685 122.793 224.308 122.33 219.176 120.836C214.044 119.341 209.259 116.844 205.098 113.49C197.299 116.706 190.205 121.419 184.215 127.36C186.788 136.763 188.236 146.437 188.531 156.18C227.401 159.736 263.54 177.688 289.857 206.514C316.174 235.34 330.77 272.96 330.781 311.993Z" fill="white"/>
</g>
<defs>
<filter id="filter0_d_1580_6994" x="0" y="0" width="348.782" height="495.035" filterUnits="userSpaceOnUse" color-interpolation-filters="sRGB">
<feFlood flood-opacity="0" result="BackgroundImageFix"/>
<feColorMatrix in="SourceAlpha" type="matrix" values="0 0 0 0 0 0 0 0 0 0 0 0 0 0 0 0 0 0 127 0" result="hardAlpha"/>
<feOffset dy="8"/>
<feGaussianBlur stdDeviation="9"/>
<feComposite in2="hardAlpha" operator="out"/>
<feColorMatrix type="matrix" values="0 0 0 0 0 0 0 0 0 0 0 0 0 0 0 0 0 0 0.25 0"/>
<feBlend mode="normal" in2="BackgroundImageFix" result="effect1_dropShadow_1580_6994"/>
<feBlend mode="normal" in="SourceGraphic" in2="effect1_dropShadow_1580_6994" result="shape"/>
</filter>
</defs>
</svg>
